<svg width="25" height="25" viewBox="0 0 25 25" fill="none" xmlns="http://www.w3.org/2000/svg">
<path d="M21.0902 4.00949C19.9845 2.89262 18.6675 2.00708 17.216 1.40453C15.7644 0.801981 14.2075 0.494475 12.6359 0.49995C6.05096 0.49995 0.684129 5.86679 0.684129 12.4517C0.684129 14.5623 1.2389 16.6125 2.27609 18.4216L0.587646 24.6206L6.9193 22.9562C8.66805 23.909 10.6339 24.4155 12.6359 24.4155C19.2208 24.4155 24.5876 19.0487 24.5876 12.4638C24.5876 9.26779 23.3454 6.26477 21.0902 4.00949ZM12.6359 22.3894C10.851 22.3894 9.10222 21.907 7.57056 21.0025L7.20875 20.7854L3.44594 21.7743L4.44694 18.108L4.20574 17.7341C3.21407 16.1506 2.68751 14.3202 2.68614 12.4517C2.68614 6.97634 7.14845 2.51402 12.6238 2.51402C15.2771 2.51402 17.7736 3.5512 19.6429 5.43261C20.5685 6.35397 21.3021 7.4499 21.801 8.65685C22.2999 9.8638 22.5543 11.1578 22.5495 12.4638C22.5736 17.9392 18.1113 22.3894 12.6359 22.3894ZM18.0871 14.9603C17.7856 14.8155 16.3143 14.0919 16.049 13.9834C15.7716 13.8869 15.5786 13.8387 15.3736 14.1281C15.1685 14.4296 14.6017 15.105 14.4329 15.298C14.264 15.503 14.0831 15.5271 13.7816 15.3703C13.4801 15.2256 12.5153 14.9 11.3816 13.8869C10.4892 13.0909 9.8982 12.114 9.71729 11.8125C9.54845 11.511 9.69317 11.3542 9.84996 11.1975C9.98262 11.0648 10.1515 10.8477 10.2962 10.6789C10.4409 10.51 10.5012 10.3773 10.5977 10.1844C10.6942 9.97934 10.6459 9.8105 10.5736 9.66577C10.5012 9.52105 9.8982 8.04969 9.65699 7.44668C9.41579 6.86778 9.16252 6.94015 8.98162 6.92808H8.40272C8.1977 6.92808 7.88413 7.00045 7.60674 7.30195C7.34141 7.60346 6.56956 8.32708 6.56956 9.79844C6.56956 11.2698 7.64292 12.6929 7.78765 12.8859C7.93237 13.0909 9.8982 16.106 12.8892 17.3964C13.6007 17.71 14.1555 17.8909 14.5897 18.0236C15.3012 18.2527 15.9525 18.2165 16.4711 18.1442C17.05 18.0598 18.2439 17.4206 18.4851 16.7211C18.7384 16.0216 18.7384 15.4306 18.654 15.298C18.5696 15.1653 18.3886 15.105 18.0871 14.9603Z" fill="#CFB317"/>
</svg>
